<svg width="14" height="11" viewBox="0 0 14 11" fill="none" xmlns="http://www.w3.org/2000/svg">
<path d="M12.6659 0.50892L0.665898 0.50892C0.544404 0.5093 0.425314 0.542809 0.321447 0.605839C0.217581 0.668868 0.13287 0.759029 0.0764341 0.866621C0.0199976 0.974213 -0.00602627 1.09516 0.00116253 1.21644C0.00835133 1.33772 0.048481 1.45475 0.117231 1.55492L6.11723 10.2216C6.3659 10.5809 6.96456 10.5809 7.2139 10.2216L13.2139 1.55492C13.2833 1.45496 13.3241 1.33787 13.3317 1.21639C13.3392 1.09491 13.3134 0.973668 13.2569 0.865849C13.2004 0.758029 13.1154 0.667751 13.0113 0.604824C12.9071 0.541897 12.7876 0.508728 12.6659 0.50892ZM6.6659 8.67092L1.9379 1.84225L11.3939 1.84225L6.6659 8.67092Z" fill="black"/>
</svg>
